<svg width="800" height="800" viewBox="0 0 800 800" fill="none" xmlns="http://www.w3.org/2000/svg">
<path d="M408.331 0C559.667 0 674.434 136.631 648.503 285.927L635.955 358.175C631.148 385.85 631.148 414.148 635.955 441.823L648.503 514.072C674.433 663.369 559.666 800 408.333 800C293.655 800 194.481 719.964 170.119 607.753C140.397 470.85 140.397 329.152 170.119 192.248C194.478 80.0359 293.652 0 408.331 0Z" fill="#FF7C6E"/>
<path d="M464.98 793.395C446.856 797.698 427.905 800 408.333 800C293.655 800 194.481 719.964 170.119 607.753C140.397 470.85 140.397 329.152 170.119 192.248C194.478 80.0359 293.652 0 408.331 0C427.903 0 446.855 2.30313 464.978 6.60469C375.383 27.9125 303.414 98.9562 283.161 192.247C253.439 329.15 253.439 470.848 283.161 607.752C303.416 701.044 375.384 772.088 464.98 793.395Z" fill="#FF6554"/>
<path d="M521.739 113.044C521.739 137.056 502.273 156.522 478.261 156.522C454.248 156.522 434.783 137.056 434.783 113.044C434.783 89.0312 454.248 69.5656 478.261 69.5656C502.273 69.5656 521.739 89.0312 521.739 113.044ZM547.827 173.912C533.42 173.912 521.739 185.592 521.739 200C521.739 214.408 533.419 226.087 547.827 226.087C562.233 226.087 573.914 214.408 573.914 200C573.914 185.592 562.233 173.912 547.827 173.912Z" fill="#FFA69F"/>
</svg>
